<svg width="144" height="54" viewBox="0 0 144 54" fill="none" xmlns="http://www.w3.org/2000/svg">
<path d="M15.4759 41.28C12.0892 41.28 9.28919 40.4933 7.07586 38.92C4.88919 37.32 3.70253 34.9867 3.51586 31.92H12.9559C13.0892 33.5467 13.8092 34.36 15.1159 34.36C15.5959 34.36 15.9959 34.2533 16.3159 34.04C16.6625 33.8 16.8359 33.44 16.8359 32.96C16.8359 32.2933 16.4759 31.76 15.7559 31.36C15.0359 30.9333 13.9159 30.4533 12.3959 29.92C10.5825 29.28 9.07586 28.6533 7.87586 28.04C6.70253 27.4267 5.68919 26.5333 4.83586 25.36C3.98253 24.1867 3.56919 22.68 3.59586 20.84C3.59586 19 4.06253 17.44 4.99586 16.16C5.95586 14.8533 7.24919 13.8667 8.87586 13.2C10.5292 12.5333 12.3825 12.2 14.4359 12.2C17.9025 12.2 20.6492 13 22.6759 14.6C24.7292 16.2 25.8092 18.4533 25.9159 21.36H16.3559C16.3292 20.56 16.1292 19.9867 15.7559 19.64C15.3825 19.2933 14.9292 19.12 14.3959 19.12C14.0225 19.12 13.7159 19.2533 13.4759 19.52C13.2359 19.76 13.1159 20.1067 13.1159 20.56C13.1159 21.2 13.4625 21.7333 14.1559 22.16C14.8759 22.56 16.0092 23.0533 17.5559 23.64C19.3425 24.3067 20.8092 24.9467 21.9559 25.56C23.1292 26.1733 24.1425 27.0267 24.9959 28.12C25.8492 29.2133 26.2759 30.5867 26.2759 32.24C26.2759 33.9733 25.8492 35.5333 24.9959 36.92C24.1425 38.28 22.9025 39.3467 21.2759 40.12C19.6492 40.8933 17.7159 41.28 15.4759 41.28ZM33.7959 41.32C32.2492 41.32 31.0092 40.9067 30.0759 40.08C29.1425 39.2533 28.6759 38.2133 28.6759 36.96C28.6759 35.68 29.1425 34.6267 30.0759 33.8C31.0092 32.9467 32.2492 32.52 33.7959 32.52C35.3159 32.52 36.5425 32.9467 37.4759 33.8C38.4092 34.6267 38.8759 35.68 38.8759 36.96C38.8759 38.2133 38.4092 39.2533 37.4759 40.08C36.5425 40.9067 35.3159 41.32 33.7959 41.32Z" fill="#292A34"/>
<path d="M59.4692 10.6572C59.0206 8.8328 55.5022 7.76773 51.6106 8.27831C48.6668 8.66451 45.165 11.0751 43.634 12.2264C43.4448 12.3687 43.3611 12.569 43.4092 12.7643C43.4573 12.9596 43.6311 13.126 43.8763 13.2112C45.8602 13.9014 50.2914 15.2712 53.2351 14.885C57.1266 14.3745 59.9179 12.4817 59.4692 10.6572Z" fill="#292A34"/>
<path d="M72.0504 27.869C69.7361 25.8416 68.4641 23.2852 68.4641 20.6455C68.4641 17.9451 66.0184 15.6626 62.657 14.9136C63.4693 13.8827 65.1394 12.1016 67.5971 11.1187C68.0275 10.9465 68.221 10.5698 68.0503 10.2336L67.0281 8.22149C66.9248 8.01808 66.7019 7.85935 66.421 7.78904C66.1399 7.71866 65.8307 7.7443 65.5782 7.85844C63.829 8.64912 60.4707 10.667 59.9344 14.6592C55.5553 14.7845 52.0574 17.4159 52.0574 20.6455C52.0574 23.2911 50.7906 25.8371 48.4711 27.869C46.2522 29.8126 44.9174 32.3135 44.9174 35.0422C44.9174 41.2322 51.787 46.25 60.2608 46.25C68.7346 46.25 75.6042 41.2322 75.6042 35.0422C75.6041 32.3134 74.2691 29.8127 72.0504 27.869Z" fill="#292A34"/>
<path d="M83.78 41.16C82.8067 41.16 81.94 40.9933 81.18 40.66C80.42 40.3267 79.82 39.8733 79.38 39.3C78.94 38.7133 78.6933 38.06 78.64 37.34H82.02C82.06 37.7267 82.24 38.04 82.56 38.28C82.88 38.52 83.2733 38.64 83.74 38.64C84.1667 38.64 84.4933 38.56 84.72 38.4C84.96 38.2267 85.08 38.0067 85.08 37.74C85.08 37.42 84.9133 37.1867 84.58 37.04C84.2467 36.88 83.7067 36.7067 82.96 36.52C82.16 36.3333 81.4933 36.14 80.96 35.94C80.4267 35.7267 79.9667 35.4 79.58 34.96C79.1933 34.5067 79 33.9 79 33.14C79 32.5 79.1733 31.92 79.52 31.4C79.88 30.8667 80.4 30.4467 81.08 30.14C81.7733 29.8333 82.5933 29.68 83.54 29.68C84.94 29.68 86.04 30.0267 86.84 30.72C87.6533 31.4133 88.12 32.3333 88.24 33.48H85.08C85.0267 33.0933 84.8533 32.7867 84.56 32.56C84.28 32.3333 83.9067 32.22 83.44 32.22C83.04 32.22 82.7333 32.3 82.52 32.46C82.3067 32.6067 82.2 32.8133 82.2 33.08C82.2 33.4 82.3667 33.64 82.7 33.8C83.0467 33.96 83.58 34.12 84.3 34.28C85.1267 34.4933 85.8 34.7067 86.32 34.92C86.84 35.12 87.2933 35.4533 87.68 35.92C88.08 36.3733 88.2867 36.9867 88.3 37.76C88.3 38.4133 88.1133 39 87.74 39.52C87.38 40.0267 86.8533 40.4267 86.16 40.72C85.48 41.0133 84.6867 41.16 83.78 41.16ZM93.8123 31.42C94.1457 30.9 94.6057 30.48 95.1923 30.16C95.779 29.84 96.4657 29.68 97.2523 29.68C98.1723 29.68 99.0057 29.9133 99.7523 30.38C100.499 30.8467 101.086 31.5133 101.512 32.38C101.952 33.2467 102.172 34.2533 102.172 35.4C102.172 36.5467 101.952 37.56 101.512 38.44C101.086 39.3067 100.499 39.98 99.7523 40.46C99.0057 40.9267 98.1723 41.16 97.2523 41.16C96.479 41.16 95.7923 41 95.1923 40.68C94.6057 40.36 94.1457 39.9467 93.8123 39.44V46.32H90.3923V29.84H93.8123V31.42ZM98.6923 35.4C98.6923 34.5467 98.4523 33.88 97.9723 33.4C97.5057 32.9067 96.9257 32.66 96.2323 32.66C95.5523 32.66 94.9723 32.9067 94.4923 33.4C94.0257 33.8933 93.7923 34.5667 93.7923 35.42C93.7923 36.2733 94.0257 36.9467 94.4923 37.44C94.9723 37.9333 95.5523 38.18 96.2323 38.18C96.9123 38.18 97.4923 37.9333 97.9723 37.44C98.4523 36.9333 98.6923 36.2533 98.6923 35.4ZM114.487 35.24C114.487 35.56 114.467 35.8933 114.427 36.24H106.687C106.74 36.9333 106.96 37.4667 107.347 37.84C107.747 38.2 108.233 38.38 108.807 38.38C109.66 38.38 110.253 38.02 110.587 37.3H114.227C114.04 38.0333 113.7 38.6933 113.207 39.28C112.727 39.8667 112.12 40.3267 111.387 40.66C110.653 40.9933 109.833 41.16 108.927 41.16C107.833 41.16 106.86 40.9267 106.007 40.46C105.153 39.9933 104.487 39.3267 104.007 38.46C103.527 37.5933 103.287 36.58 103.287 35.42C103.287 34.26 103.52 33.2467 103.987 32.38C104.467 31.5133 105.133 30.8467 105.987 30.38C106.84 29.9133 107.82 29.68 108.927 29.68C110.007 29.68 110.967 29.9067 111.807 30.36C112.647 30.8133 113.3 31.46 113.767 32.3C114.247 33.14 114.487 34.12 114.487 35.24ZM110.987 34.34C110.987 33.7533 110.787 33.2867 110.387 32.94C109.987 32.5933 109.487 32.42 108.887 32.42C108.313 32.42 107.827 32.5867 107.427 32.92C107.04 33.2533 106.8 33.7267 106.707 34.34H110.987ZM115.611 35.4C115.611 34.2533 115.824 33.2467 116.251 32.38C116.691 31.5133 117.284 30.8467 118.031 30.38C118.777 29.9133 119.611 29.68 120.531 29.68C121.317 29.68 122.004 29.84 122.591 30.16C123.191 30.48 123.651 30.9 123.971 31.42V29.84H127.391V41H123.971V39.42C123.637 39.94 123.171 40.36 122.571 40.68C121.984 41 121.297 41.16 120.511 41.16C119.604 41.16 118.777 40.9267 118.031 40.46C117.284 39.98 116.691 39.3067 116.251 38.44C115.824 37.56 115.611 36.5467 115.611 35.4ZM123.971 35.42C123.971 34.5667 123.731 33.8933 123.251 33.4C122.784 32.9067 122.211 32.66 121.531 32.66C120.851 32.66 120.271 32.9067 119.791 33.4C119.324 33.88 119.091 34.5467 119.091 35.4C119.091 36.2533 119.324 36.9333 119.791 37.44C120.271 37.9333 120.851 38.18 121.531 38.18C122.211 38.18 122.784 37.9333 123.251 37.44C123.731 36.9467 123.971 36.2733 123.971 35.42ZM133.285 31.7C133.685 31.0867 134.185 30.6067 134.785 30.26C135.385 29.9 136.052 29.72 136.785 29.72V33.34H135.845C134.992 33.34 134.352 33.5267 133.925 33.9C133.498 34.26 133.285 34.9 133.285 35.82V41H129.865V29.84H133.285V31.7Z" fill="#292A34"/>
</svg>
